<?xml version="1.0" encoding="UTF-8"?>
<svg id="Layer_1" data-name="Layer 1" xmlns="http://www.w3.org/2000/svg" xmlns:xlink="http://www.w3.org/1999/xlink" viewBox="0 0 342.33 382.67">
  <defs>
    <style>
      .cls-1 {
        fill: url(#linear-gradient-2);
      }

      .cls-2 {
        fill: #fff;
      }

      .cls-3 {
        fill: #f5f5f0;
      }

      .cls-4 {
        fill: #c9a227;
      }

      .cls-5 {
        fill: url(#linear-gradient);
      }
    </style>
    <linearGradient id="linear-gradient" x1="74.01" y1="171.16" x2="211.34" y2="201.38" gradientUnits="userSpaceOnUse">
      <stop offset="0" stop-color="#dfc77d"/>
      <stop offset="1" stop-color="#c9a227"/>
    </linearGradient>
    <linearGradient id="linear-gradient-2" x1="157.87" y1="196.35" x2="288.86" y2="207.44" gradientUnits="userSpaceOnUse">
      <stop offset=".02" stop-color="#0f3d2e"/>
      <stop offset="1" stop-color="#3f6458"/>
    </linearGradient>
  </defs>
  <g>
    <path class="cls-5" d="M204.04,199.63c0,7.24-5.87,13.12-13.12,13.12s-13.12-5.87-13.12-13.12,5.87-13.12,13.12-13.12,13.12,5.87,13.12,13.12ZM191.8,181.7c7.24,0,13.12-5.87,13.12-13.12s-5.87-13.12-13.12-13.12-13.12,5.87-13.12,13.12,5.87,13.12,13.12,13.12ZM182.4,144.76c0-7.24-5.87-13.12-13.12-13.12s-13.12,5.87-13.12,13.12,5.87,13.12,13.12,13.12,13.12-5.87,13.12-13.12ZM140.42,135.09c-6.67,0-12.07,5.41-12.07,12.07s5.41,12.07,12.07,12.07,12.07-5.41,12.07-12.07-5.41-12.07-12.07-12.07ZM116.81,158.03c-5.59,0-10.12,4.53-10.12,10.12s4.53,10.12,10.12,10.12,10.12-4.53,10.12-10.12-4.53-10.12-10.12-10.12ZM111.35,187.94c-4.77,0-8.63,3.86-8.63,8.63s3.86,8.63,8.63,8.63,8.63-3.86,8.63-8.63-3.86-8.63-8.63-8.63ZM93.42,214.16c-4.29,0-7.77,3.48-7.77,7.77s3.48,7.77,7.77,7.77,7.77-3.48,7.77-7.77-3.48-7.77-7.77-7.77ZM63.25,219.62c-2.72,0-4.93,2.21-4.93,4.93s2.21,4.93,4.93,4.93,4.93-2.21,4.93-4.93-2.21-4.93-4.93-4.93ZM42.7,199.24c-1.78,0-3.23,1.45-3.23,3.23s1.45,3.23,3.23,3.23,3.23-1.45,3.23-3.23-1.45-3.23-3.23-3.23Z"/>
    <path class="cls-1" d="M138.29,183.04c0-7.24,5.87-13.12,13.12-13.12s13.12,5.87,13.12,13.12-5.87,13.12-13.12,13.12-13.12-5.87-13.12-13.12ZM150.53,200.96c-7.24,0-13.12,5.87-13.12,13.12s5.87,13.12,13.12,13.12,13.12-5.87,13.12-13.12-5.87-13.12-13.12-13.12ZM173.05,224.79c-7.24,0-13.12,5.87-13.12,13.12s5.87,13.12,13.12,13.12,13.12-5.87,13.12-13.12-5.87-13.12-13.12-13.12ZM201.91,223.43c-6.67,0-12.07,5.41-12.07,12.07s5.41,12.07,12.07,12.07,12.07-5.41,12.07-12.07-5.41-12.07-12.07-12.07ZM225.52,204.4c-5.59,0-10.12,4.53-10.12,10.12s4.53,10.12,10.12,10.12,10.12-4.53,10.12-10.12-4.53-10.12-10.12-10.12ZM230.99,177.47c-4.77,0-8.63,3.86-8.63,8.63s3.86,8.63,8.63,8.63,8.63-3.86,8.63-8.63-3.86-8.63-8.63-8.63ZM248.91,152.97c-4.29,0-7.77,3.48-7.77,7.77s3.48,7.77,7.77,7.77,7.77-3.48,7.77-7.77-3.48-7.77-7.77-7.77ZM279.08,153.18c-2.72,0-4.93,2.21-4.93,4.93s2.21,4.93,4.93,4.93,4.93-2.21,4.93-4.93-2.21-4.93-4.93-4.93ZM299.63,176.96c-1.78,0-3.23,1.45-3.23,3.23s1.45,3.23,3.23,3.23,3.23-1.45,3.23-3.23-1.45-3.23-3.23-3.23Z"/>
    <circle class="cls-2" cx="171.17" cy="303.03" r="20"/>
    <circle class="cls-2" cx="171.17" cy="79.64" r="20"/>
    <circle class="cls-3" cx="171.17" cy="303.03" r="20"/>
    <circle class="cls-3" cx="171.17" cy="79.64" r="20"/>
  </g>
  <g>
    <path class="cls-4" d="M204.04,199.63c0,7.24-5.87,13.12-13.12,13.12s-13.12-5.87-13.12-13.12,5.87-13.12,13.12-13.12,13.12,5.87,13.12,13.12ZM191.8,181.7c7.24,0,13.12-5.87,13.12-13.12s-5.87-13.12-13.12-13.12-13.12,5.87-13.12,13.12,5.87,13.12,13.12,13.12ZM182.4,144.76c0-7.24-5.87-13.12-13.12-13.12s-13.12,5.87-13.12,13.12,5.87,13.12,13.12,13.12,13.12-5.87,13.12-13.12ZM140.42,135.09c-6.67,0-12.07,5.41-12.07,12.07s5.41,12.07,12.07,12.07,12.07-5.41,12.07-12.07-5.41-12.07-12.07-12.07ZM116.81,158.03c-5.59,0-10.12,4.53-10.12,10.12s4.53,10.12,10.12,10.12,10.12-4.53,10.12-10.12-4.53-10.12-10.12-10.12ZM111.35,187.94c-4.77,0-8.63,3.86-8.63,8.63s3.86,8.63,8.63,8.63,8.63-3.86,8.63-8.63-3.86-8.63-8.63-8.63ZM93.42,214.16c-4.29,0-7.77,3.48-7.77,7.77s3.48,7.77,7.77,7.77,7.77-3.48,7.77-7.77-3.48-7.77-7.77-7.77ZM63.25,219.62c-2.72,0-4.93,2.21-4.93,4.93s2.21,4.93,4.93,4.93,4.93-2.21,4.93-4.93-2.21-4.93-4.93-4.93ZM42.7,199.24c-1.78,0-3.23,1.45-3.23,3.23s1.45,3.23,3.23,3.23,3.23-1.45,3.23-3.23-1.45-3.23-3.23-3.23Z"/>
    <path class="cls-4" d="M138.29,183.04c0-7.24,5.87-13.12,13.12-13.12s13.12,5.87,13.12,13.12-5.87,13.12-13.12,13.12-13.12-5.87-13.12-13.12ZM150.53,200.96c-7.24,0-13.12,5.87-13.12,13.12s5.87,13.12,13.12,13.12,13.12-5.87,13.12-13.12-5.87-13.12-13.12-13.12ZM173.05,224.79c-7.24,0-13.12,5.87-13.12,13.12s5.87,13.12,13.12,13.12,13.12-5.87,13.12-13.12-5.87-13.12-13.12-13.12ZM201.91,223.43c-6.67,0-12.07,5.41-12.07,12.07s5.41,12.07,12.07,12.07,12.07-5.41,12.07-12.07-5.41-12.07-12.07-12.07ZM225.52,204.4c-5.59,0-10.12,4.53-10.12,10.12s4.53,10.12,10.12,10.12,10.12-4.53,10.12-10.12-4.53-10.12-10.12-10.12ZM230.99,177.47c-4.77,0-8.63,3.86-8.63,8.63s3.86,8.63,8.63,8.63,8.63-3.86,8.63-8.63-3.86-8.63-8.63-8.63ZM248.91,152.97c-4.29,0-7.77,3.48-7.77,7.77s3.48,7.77,7.77,7.77,7.77-3.48,7.77-7.77-3.48-7.77-7.77-7.77ZM279.08,153.18c-2.72,0-4.93,2.21-4.93,4.93s2.21,4.93,4.93,4.93,4.93-2.21,4.93-4.93-2.21-4.93-4.93-4.93ZM299.63,176.96c-1.78,0-3.23,1.45-3.23,3.23s1.45,3.23,3.23,3.23,3.23-1.45,3.23-3.23-1.45-3.23-3.23-3.23Z"/>
    <circle class="cls-4" cx="171.17" cy="303.03" r="20"/>
    <circle class="cls-4" cx="171.17" cy="79.64" r="20"/>
    <circle class="cls-4" cx="171.17" cy="303.03" r="20"/>
    <circle class="cls-4" cx="171.17" cy="79.64" r="20"/>
  </g>
</svg>